<svg xmlns="http://www.w3.org/2000/svg" xmlns:xlink="http://www.w3.org/1999/xlink" width="60.414" height="60.588" viewBox="0 0 60.414 60.588">
  <defs>
    <clipPath id="clip-path">
      <rect id="Rectángulo_27" data-name="Rectángulo 27" width="60.414" height="60.588" fill="none"/>
    </clipPath>
  </defs>
  <g id="carita" transform="translate(0 0)">
    <g id="Grupo_34" data-name="Grupo 34" transform="translate(0 0)" clip-path="url(#clip-path)">
      <path id="Trazado_89" data-name="Trazado 89" d="M27.777,0h3.645c1.394.17,2.813.227,4.179.528,12.483,2.745,20.486,10.28,23.924,22.6.437,1.568.6,3.214.888,4.823v4.688a3.613,3.613,0,0,0-.152.475,45.922,45.922,0,0,1-.894,4.834Q54.112,55.731,36.01,59.931c-1.39.321-2.826.443-4.241.657H28.819c-.249-.048-.5-.109-.744-.144a40.851,40.851,0,0,1-4.367-.63C12.124,56.858,4.5,49.691,1.044,38.209.565,36.623.342,34.959,0,33.332V27.256q.243-1.3.487-2.61A30.34,30.34,0,0,1,23.8.706C25.117.425,26.45.233,27.777,0m2.395,56.679c14.469.163,26.394-11.887,26.443-26.36A26.526,26.526,0,0,0,29.4,3.821c-14.145.3-25.736,12.4-25.664,26.652.068,13.621,11.418,26.345,26.432,26.206" transform="translate(0 0)"/>
      <path id="Trazado_90" data-name="Trazado 90" d="M43.835,36.715a1.9,1.9,0,0,1-1.3,1.747,1.526,1.526,0,0,1-1.928-.52c-.654-.807-1.229-1.681-1.9-2.471-3.255-3.815-7.54-4.869-12.334-4.582a13.155,13.155,0,0,0-10.928,6.348c-.453.714-.977,1.414-1.963,1.351a1.883,1.883,0,0,1-1.4-3.035,16.582,16.582,0,0,1,6.312-6.289,19.68,19.68,0,0,1,11.152-2.147c3.562.285,6.939,1.214,9.653,3.6a40.209,40.209,0,0,1,4.181,4.821,4.094,4.094,0,0,1,.46,1.177" transform="translate(2.44 5.632)"/>
      <path id="Trazado_91" data-name="Trazado 91" d="M14.057,19.391a3.738,3.738,0,1,1,7.474-.05,3.575,3.575,0,0,1-3.706,3.722,3.649,3.649,0,0,1-3.769-3.672" transform="translate(2.928 3.24)"/>
      <path id="Trazado_92" data-name="Trazado 92" d="M29.7,19.317a3.742,3.742,0,1,1,7.483.017,3.6,3.6,0,0,1-3.7,3.729A3.638,3.638,0,0,1,29.7,19.317" transform="translate(6.186 3.241)"/>
    </g>
  </g>
</svg>
