<svg xmlns="http://www.w3.org/2000/svg" xmlns:xlink="http://www.w3.org/1999/xlink" width="60" height="60" viewBox="0 0 60 60">
  <defs>
    <clipPath id="clip-path">
      <rect id="Rectángulo_26" data-name="Rectángulo 26" width="60" height="60" fill="#0d0d0d"/>
    </clipPath>
  </defs>
  <g id="confirmacion" transform="translate(0 0)">
    <g id="Grupo_31" data-name="Grupo 31" transform="translate(0 0)" clip-path="url(#clip-path)">
      <path id="Trazado_87" data-name="Trazado 87" d="M30,60A30,30,0,1,1,60,30,30.034,30.034,0,0,1,30,60M30,4.258A25.742,25.742,0,1,0,55.742,30,25.771,25.771,0,0,0,30,4.258" transform="translate(0 0)" fill="#0d0d0d"/>
      <path id="Trazado_88" data-name="Trazado 88" d="M20.951,37.937a2.07,2.07,0,0,1-.244-.015,2.125,2.125,0,0,1-1.565-.992l-5.75-9.269a2.129,2.129,0,1,1,3.618-2.245L21.345,32.4,37.592,16.16A2.129,2.129,0,1,1,40.6,19.171L22.456,37.314a2.133,2.133,0,0,1-1.505.623" transform="translate(2.745 3.263)" fill="#0d0d0d"/>
    </g>
  </g>
</svg>
